<?xml version="1.0" encoding="iso-8859-1"?>
<!-- Uploaded to: SVG Repo, www.svgrepo.com, Generator: SVG Repo Mixer Tools -->
<svg fill="#000000" height="800px" width="800px" version="1.1" id="Capa_1" xmlns="http://www.w3.org/2000/svg" xmlns:xlink="http://www.w3.org/1999/xlink" 
	 viewBox="0 0 490 490" xml:space="preserve">
<g>
	<path d="M144.856,346.625h20.606c7.656,0,11.484,3.888,11.484,11.664v13.742h14.296v-16.613c0-9.241-4.172-14.131-12.531-14.64
		v-0.493c5.413-1.077,8.987-3.006,10.737-5.802c1.75-2.796,2.617-8,2.617-15.626c0-8.389-1.735-14.191-5.234-17.391
		c-3.499-3.2-9.869-4.8-19.111-4.8h-37.16v75.366h14.296V346.625z M144.856,308.702h21.533c4.68,0,7.716,0.778,9.092,2.333
		c1.376,1.57,2.064,5.039,2.064,10.423c0,5.264-0.793,8.763-2.393,10.512c-1.6,1.75-4.86,2.617-9.75,2.617h-20.546V308.702z"/>
	<path d="M232.17,361.204c-8.21,0-13.234-0.583-15.088-1.764c-1.839-1.181-2.752-4.396-2.752-9.66l-0.06-1.6h-13.907l0.045,2.751
		c0,8.763,1.944,14.58,5.832,17.451c3.888,2.871,11.754,4.307,23.597,4.307c13.189,0,21.713-1.466,25.571-4.381
		c3.873-2.931,5.802-9.406,5.802-19.41c0-8.135-1.645-13.488-4.95-16.075c-3.29-2.572-10.557-4.172-21.773-4.8
		c-9.495-0.508-15.103-1.256-16.793-2.213c-1.69-0.957-2.542-3.813-2.542-8.553c0-4.008,1.047-6.639,3.125-7.895
		c2.079-1.256,6.505-1.884,13.279-1.884c5.742,0,9.391,0.553,10.931,1.63c1.54,1.092,2.482,3.753,2.811,7.985
		c0,0.329,0.045,0.837,0.12,1.54h13.967v-2.871c0-7.806-1.974-13.04-5.907-15.731c-3.948-2.692-11.574-4.038-22.924-4.038
		c-11.963,0-19.933,1.466-23.926,4.396c-3.993,2.916-5.996,8.793-5.996,17.585c0,8.613,1.66,14.221,4.965,16.838
		c3.32,2.617,10.946,4.277,22.864,4.965l7.895,0.508c4.456,0.254,7.357,0.987,8.703,2.183c1.346,1.196,2.019,3.604,2.019,7.253
		c0,4.935-0.897,8.09-2.662,9.451C242.652,360.532,238.57,361.204,232.17,361.204z"/>
	<path d="M299.85,361.204c-8.195,0-13.219-0.583-15.073-1.764c-1.839-1.181-2.752-4.396-2.752-9.66l-0.06-1.6h-13.907l0.045,2.751
		c0,8.763,1.944,14.58,5.832,17.451c3.888,2.871,11.754,4.307,23.612,4.307c13.159,0,21.683-1.466,25.571-4.381
		c3.858-2.931,5.802-9.406,5.802-19.41c0-8.135-1.675-13.488-4.965-16.075c-3.29-2.572-10.557-4.172-21.773-4.8
		c-9.495-0.508-15.103-1.256-16.793-2.213c-1.69-0.957-2.542-3.813-2.542-8.553c0-4.008,1.047-6.639,3.125-7.895
		c2.079-1.256,6.505-1.884,13.279-1.884c5.742,0,9.391,0.553,10.946,1.63c1.525,1.092,2.482,3.753,2.811,7.985
		c0,0.329,0.03,0.837,0.12,1.54h13.967v-2.871c0-7.806-1.974-13.04-5.922-15.731c-3.948-2.692-11.574-4.038-22.909-4.038
		c-11.978,0-19.948,1.466-23.941,4.396c-3.993,2.916-5.996,8.793-5.996,17.585c0,8.613,1.66,14.221,4.965,16.838
		c3.32,2.617,10.946,4.277,22.879,4.965l7.896,0.508c4.456,0.254,7.357,0.987,8.703,2.183c1.316,1.196,2.004,3.604,2.004,7.253
		c0,4.935-0.897,8.09-2.662,9.451C310.347,360.532,306.28,361.204,299.85,361.204z"/>
	<path d="M77.788,0v265.111H42.189v139.615h0.001l35.59,35.591L77.788,490h370.023V102.422L345.388,0H77.788z M395.793,389.413
		H57.501v-108.99h338.292V389.413z M353.022,36.962l57.816,57.804h-57.816V36.962z"/>
</g>
</svg>